# xmcd
# 
# Track frame offsets:
#     182
#     12637
#     28537
#     51230
#     58895
#     87535
#     138302
#     153120
#     181410
#     241497
# 
# Disc length: 3604
# 
# Revision: 5
# Processed by: cddbd v1.5.2PL0 Copyright (c) Steve Scherf et al.
# Submitted via: fre:ac v1.1beta1pre5
# 
DISCID=860e120a
DTITLE=Dream Theater - Live Scenes From New York [CD 1)
DYEAR=2001
DGENRE=Progressive Metal
TTITLE0=Regression
TTITLE1=Overture 1928
TTITLE2=Strange Deja Vu
TTITLE3=Through My Words
TTITLE4=Fatal Tragedy
TTITLE5=Beyond this Life
TTITLE6=John and Theresa Solo Spot
TTITLE7=Through Her Eyes
TTITLE8=Home
TTITLE9=The Dance of Eternity
EXTD=
EXTT0=
EXTT1=
EXTT2=
EXTT3=
EXTT4=
EXTT5=
EXTT6=
EXTT7=
EXTT8=
EXTT9=
PLAYORDER=
